<svg width="118" height="26" viewBox="0 0 118 26" fill="none" xmlns="http://www.w3.org/2000/svg">
<path d="M2.5249 7.80498C2.5249 7.2527 2.97262 6.80499 3.5249 6.80499H13.0102C14.1235 6.80499 14.4681 8.56286 13.542 9.18076C7.16386 13.4363 17.0254 16.3578 18.375 20.8193C18.5349 21.348 18.0772 21.805 17.5249 21.805H3.5249C2.97262 21.805 2.5249 21.3573 2.5249 20.805V7.80498Z" fill="#373737"/>
<path d="M25.6929 20.805V12.037H27.7249V15.797H27.6769C27.6769 14.5597 27.9382 13.605 28.4609 12.933C28.9942 12.261 29.7622 11.925 30.7649 11.925H31.1009V14.133H30.4609C29.7569 14.133 29.2129 14.325 28.8289 14.709C28.4449 15.0823 28.2529 15.6263 28.2529 16.341V20.805H25.6929ZM36.3964 21.109C35.6497 21.109 34.9884 20.981 34.4124 20.725C33.8471 20.469 33.3724 20.1277 32.9884 19.701C32.6151 19.2637 32.3271 18.7783 32.1244 18.245C31.9324 17.701 31.8364 17.1463 31.8364 16.581V16.261C31.8364 15.6743 31.9324 15.1143 32.1244 14.581C32.3271 14.037 32.6151 13.5517 32.9884 13.125C33.3617 12.6983 33.8257 12.3623 34.3804 12.117C34.9457 11.861 35.5857 11.733 36.3004 11.733C37.2391 11.733 38.0284 11.9463 38.6684 12.373C39.3191 12.789 39.8151 13.3383 40.1564 14.021C40.4977 14.693 40.6684 15.429 40.6684 16.229V17.093H32.9084V15.637H39.1164L38.2844 16.309C38.2844 15.7863 38.2097 15.3383 38.0604 14.965C37.9111 14.5917 37.6871 14.309 37.3884 14.117C37.1004 13.9143 36.7377 13.813 36.3004 13.813C35.8524 13.813 35.4737 13.9143 35.1644 14.117C34.8551 14.3197 34.6204 14.6183 34.4604 15.013C34.3004 15.397 34.2204 15.8717 34.2204 16.437C34.2204 16.9597 34.2951 17.4183 34.4444 17.813C34.5937 18.197 34.8284 18.4957 35.1484 18.709C35.4684 18.9223 35.8844 19.029 36.3964 19.029C36.8657 19.029 37.2497 18.9383 37.5484 18.757C37.8471 18.5757 38.0497 18.3517 38.1564 18.085H40.5084C40.3804 18.6717 40.1297 19.1943 39.7564 19.653C39.3831 20.1117 38.9137 20.469 38.3484 20.725C37.7831 20.981 37.1324 21.109 36.3964 21.109ZM42.3648 20.805V12.037H44.3968V15.797H44.2528C44.2528 14.901 44.3648 14.1543 44.5888 13.557C44.8234 12.9597 45.1754 12.5117 45.6448 12.213C46.1141 11.9143 46.6848 11.765 47.3568 11.765H47.4688C48.4928 11.765 49.2714 12.101 49.8048 12.773C50.3488 13.4343 50.6208 14.4423 50.6208 15.797V20.805H48.0608V15.653C48.0608 15.1837 47.9221 14.7997 47.6448 14.501C47.3674 14.2023 46.9941 14.053 46.5248 14.053C46.0448 14.053 45.6554 14.2077 45.3568 14.517C45.0688 14.8157 44.9248 15.2103 44.9248 15.701V20.805H42.3648ZM56.7863 20.917C55.9009 20.917 55.1863 20.8103 54.6423 20.597C54.0983 20.373 53.6983 20.005 53.4423 19.493C53.1969 18.9703 53.0743 18.2663 53.0743 17.381V9.66898H55.4583V17.477C55.4583 17.893 55.5649 18.213 55.7783 18.437C56.0023 18.6503 56.3169 18.757 56.7223 18.757H58.0183V20.917H56.7863ZM51.7463 13.909V12.037H58.0183V13.909H51.7463ZM59.3398 20.805V17.941H62.1558V20.805H59.3398ZM67.8789 21.109C67.1216 21.109 66.4602 20.9863 65.8949 20.741C65.3402 20.485 64.8762 20.1437 64.5029 19.717C64.1296 19.2903 63.8522 18.8103 63.6709 18.277C63.4896 17.733 63.3989 17.173 63.3989 16.597V16.293C63.3989 15.6957 63.4949 15.125 63.6869 14.581C63.8789 14.0263 64.1616 13.5357 64.5349 13.109C64.9082 12.6823 65.3722 12.3463 65.9269 12.101C66.4922 11.8557 67.1376 11.733 67.8629 11.733C68.6522 11.733 69.3509 11.8877 69.9589 12.197C70.5669 12.4957 71.0522 12.917 71.4149 13.461C71.7776 14.005 71.9802 14.629 72.0229 15.333H69.5109C69.4682 14.9383 69.3082 14.6077 69.0309 14.341C68.7642 14.0637 68.3749 13.925 67.8629 13.925C67.4362 13.925 67.0789 14.0317 66.7909 14.245C66.5136 14.4583 66.3056 14.7517 66.1669 15.125C66.0282 15.4983 65.9589 15.941 65.9589 16.453C65.9589 16.9223 66.0229 17.349 66.1509 17.733C66.2789 18.1063 66.4816 18.3997 66.7589 18.613C67.0469 18.8157 67.4202 18.917 67.8789 18.917C68.2202 18.917 68.5082 18.8583 68.7429 18.741C68.9882 18.613 69.1802 18.4423 69.3189 18.229C69.4682 18.005 69.5589 17.749 69.5909 17.461H72.0869C72.0549 18.1863 71.8522 18.8263 71.4789 19.381C71.1056 19.925 70.6096 20.3517 69.9909 20.661C69.3722 20.9597 68.6682 21.109 67.8789 21.109ZM77.9962 21.109C77.2282 21.109 76.5455 20.9917 75.9482 20.757C75.3508 20.5117 74.8442 20.181 74.4282 19.765C74.0228 19.349 73.7135 18.8743 73.5002 18.341C73.2868 17.797 73.1802 17.2263 73.1802 16.629V16.261C73.1802 15.653 73.2868 15.077 73.5002 14.533C73.7242 13.9783 74.0442 13.493 74.4602 13.077C74.8868 12.661 75.3988 12.3357 75.9962 12.101C76.5935 11.8557 77.2602 11.733 77.9962 11.733C78.7535 11.733 79.4255 11.8557 80.0122 12.101C80.6095 12.3357 81.1162 12.661 81.5322 13.077C81.9482 13.493 82.2682 13.9783 82.4922 14.533C82.7162 15.077 82.8282 15.653 82.8282 16.261V16.629C82.8282 17.2263 82.7215 17.797 82.5082 18.341C82.2948 18.8743 81.9802 19.349 81.5642 19.765C81.1588 20.181 80.6575 20.5117 80.0602 20.757C79.4628 20.9917 78.7748 21.109 77.9962 21.109ZM77.9962 18.949C78.4975 18.949 78.9135 18.8423 79.2442 18.629C79.5748 18.4157 79.8255 18.117 79.9962 17.733C80.1775 17.349 80.2682 16.9223 80.2682 16.453C80.2682 15.9517 80.1775 15.5143 79.9962 15.141C79.8148 14.757 79.5535 14.453 79.2122 14.229C78.8815 14.005 78.4762 13.893 77.9962 13.893C77.5268 13.893 77.1215 14.005 76.7802 14.229C76.4388 14.453 76.1775 14.757 75.9962 15.141C75.8255 15.5143 75.7402 15.9517 75.7402 16.453C75.7402 16.9223 75.8255 17.349 75.9962 17.733C76.1668 18.117 76.4228 18.4157 76.7642 18.629C77.1055 18.8423 77.5162 18.949 77.9962 18.949ZM84.6148 20.805V12.037H86.6468V15.813H86.5028C86.5028 14.917 86.6148 14.1703 86.8388 13.573C87.0628 12.9757 87.3988 12.5277 87.8468 12.229C88.2948 11.9197 88.8441 11.765 89.4948 11.765H89.6068C90.2681 11.765 90.8174 11.9197 91.2548 12.229C91.7028 12.5277 92.0388 12.9757 92.2628 13.573C92.4974 14.1703 92.6148 14.917 92.6148 15.813H91.9908C91.9908 14.917 92.1028 14.1703 92.3268 13.573C92.5614 12.9757 92.9028 12.5277 93.3508 12.229C93.7988 11.9197 94.3481 11.765 94.9988 11.765H95.1108C95.7721 11.765 96.3268 11.9197 96.7748 12.229C97.2334 12.5277 97.5801 12.9757 97.8148 13.573C98.0494 14.1703 98.1668 14.917 98.1668 15.813V20.805H95.6068V15.669C95.6068 15.189 95.4788 14.7997 95.2228 14.501C94.9774 14.2023 94.6254 14.053 94.1668 14.053C93.7081 14.053 93.3454 14.2077 93.0788 14.517C92.8121 14.8157 92.6788 15.2157 92.6788 15.717V20.805H90.1028V15.669C90.1028 15.189 89.9748 14.7997 89.7188 14.501C89.4734 14.2023 89.1268 14.053 88.6788 14.053C88.2094 14.053 87.8414 14.2077 87.5748 14.517C87.3081 14.8157 87.1748 15.2157 87.1748 15.717V20.805H84.6148ZM100.541 20.805V11.957C100.541 10.9437 100.829 10.1917 101.405 9.70098C101.981 9.21032 102.829 8.96498 103.949 8.96498H105.069V10.885H103.837C103.549 10.885 103.325 10.965 103.165 11.125C103.005 11.285 102.925 11.509 102.925 11.797V20.805H100.541ZM99.5012 14.085V12.213H105.197V14.085H99.5012ZM106.644 24.277V22.101H108.468C108.745 22.101 108.98 22.0637 109.172 21.989C109.364 21.925 109.518 21.813 109.636 21.653C109.753 21.493 109.849 21.2743 109.924 20.997L112.084 12.037H114.516L112.068 21.509C111.897 22.1917 111.657 22.7357 111.348 23.141C111.049 23.5463 110.644 23.8343 110.132 24.005C109.63 24.1863 108.99 24.277 108.212 24.277H106.644ZM109.396 20.613V18.613H111.252V20.613H109.396ZM108.34 20.613L105.652 12.037H108.228L110.772 20.613H108.34Z" fill="black"/>
</svg>
